<?xml version="1.0" encoding="UTF-8"?><svg id="Layer_2" xmlns="http://www.w3.org/2000/svg" xmlns:xlink="http://www.w3.org/1999/xlink" viewBox="0 0 1249.79 1603.5"><defs><style>.cls-1{fill:url(#linear-gradient-8);}.cls-2{fill:url(#linear-gradient-7);}.cls-3{fill:url(#linear-gradient-5);}.cls-4{fill:url(#linear-gradient-6);}.cls-5{fill:url(#linear-gradient-9);}.cls-6{fill:url(#linear-gradient-4);}.cls-7{fill:url(#linear-gradient-3);}.cls-8{fill:url(#linear-gradient-2);}.cls-9{fill:url(#linear-gradient);}.cls-10{fill:#590d00;}</style><linearGradient id="linear-gradient" x1="1052.95" y1="99.12" x2="547.36" y2="1246.5" gradientUnits="userSpaceOnUse"><stop offset="0" stop-color="#d1ac52"/><stop offset=".67" stop-color="#a46a1c"/><stop offset="1" stop-color="#8d4801"/></linearGradient><linearGradient id="linear-gradient-2" x1="1307.59" y1="286.45" x2="274.92" y2="1068.14" gradientUnits="userSpaceOnUse"><stop offset="0" stop-color="#ecd37d"/><stop offset=".1" stop-color="#f6dc83"/><stop offset=".24" stop-color="#ffe48a"/><stop offset=".45" stop-color="#e8cc73"/><stop offset=".5" stop-color="#e3c66e"/><stop offset=".56" stop-color="#d7b562"/><stop offset=".62" stop-color="#c49b4e"/><stop offset=".69" stop-color="#a87532"/><stop offset=".77" stop-color="#85450f"/><stop offset=".8" stop-color="#773201"/></linearGradient><linearGradient id="linear-gradient-3" x1="927.3" y1="59.36" x2="684.89" y2="1322.18" gradientUnits="userSpaceOnUse"><stop offset="0" stop-color="#f1d985"/><stop offset="1" stop-color="#fff49e"/></linearGradient><linearGradient id="linear-gradient-4" x1="298.88" y1="881.74" x2="1286.97" y2="459.26" gradientUnits="userSpaceOnUse"><stop offset="0" stop-color="#310900"/><stop offset=".49" stop-color="#9e4b00"/><stop offset=".5" stop-color="#9f4d02"/><stop offset=".51" stop-color="#a4560a"/><stop offset=".52" stop-color="#ad6518"/><stop offset=".53" stop-color="#b97a2c"/><stop offset=".53" stop-color="#c89545"/><stop offset=".54" stop-color="#dbb765"/><stop offset=".54" stop-color="#f2de89"/><stop offset=".54" stop-color="#fff59f"/><stop offset="1" stop-color="#fff49e"/></linearGradient><linearGradient id="linear-gradient-5" x1="365.03" y1="1605.03" x2="492" y2="536.14" gradientUnits="userSpaceOnUse"><stop offset="0" stop-color="#c7a450"/><stop offset=".28" stop-color="#c5a04d"/><stop offset=".51" stop-color="#c19643"/><stop offset=".73" stop-color="#bb8533"/><stop offset=".94" stop-color="#b26c1d"/><stop offset="1" stop-color="#af6416"/></linearGradient><linearGradient id="linear-gradient-6" x1="286.32" y1="416.02" x2="537.96" y2="1577.26" gradientUnits="userSpaceOnUse"><stop offset="0" stop-color="#ecd37d"/><stop offset=".13" stop-color="#f6dc83"/><stop offset=".29" stop-color="#ffe48a"/><stop offset=".5" stop-color="#e9cf78"/><stop offset=".58" stop-color="#e0c46e"/><stop offset=".71" stop-color="#caa954"/><stop offset=".74" stop-color="#c6a34f"/><stop offset="1" stop-color="#845822"/></linearGradient><linearGradient id="linear-gradient-7" x1="586.65" y1="603.15" x2="733.37" y2="1347.04" gradientUnits="userSpaceOnUse"><stop offset="0" stop-color="#fffbab"/><stop offset=".3" stop-color="#fdf8a9"/><stop offset=".45" stop-color="#f7f1a3"/><stop offset=".56" stop-color="#ece498"/><stop offset=".65" stop-color="#ddd189"/><stop offset=".74" stop-color="#cab975"/><stop offset=".81" stop-color="#b29c5d"/><stop offset=".89" stop-color="#967841"/><stop offset=".95" stop-color="#765120"/><stop offset=".99" stop-color="#5f3409"/></linearGradient><linearGradient id="linear-gradient-8" x1="395.9" y1="392.92" x2="425.91" y2="1591.09" gradientUnits="userSpaceOnUse"><stop offset="0" stop-color="#fffbab"/><stop offset=".29" stop-color="#fffbaa"/><stop offset=".4" stop-color="#fef9a8"/><stop offset=".45" stop-color="#fdf5a1"/><stop offset=".47" stop-color="#fcef95"/><stop offset=".5" stop-color="#f9e584"/><stop offset=".51" stop-color="#f8df7a"/><stop offset=".52" stop-color="#f2d774"/><stop offset=".53" stop-color="#e2c265"/><stop offset=".55" stop-color="#c8a04c"/><stop offset=".58" stop-color="#a4712a"/><stop offset=".59" stop-color="#8b5112"/><stop offset=".65" stop-color="#59330b"/><stop offset=".73" stop-color="#0a0401"/><stop offset="1" stop-color="#080502"/></linearGradient><linearGradient id="linear-gradient-9" x1="264.3" y1="490.78" x2="550.54" y2="1589.58" gradientUnits="userSpaceOnUse"><stop offset="0" stop-color="#ffe58a"/><stop offset=".23" stop-color="#eed681"/><stop offset=".7" stop-color="#e9cf78"/><stop offset=".76" stop-color="#e2c66d"/><stop offset=".86" stop-color="#d0af52"/><stop offset="1" stop-color="#b58a26"/></linearGradient></defs><g id="Layer_1-2"><path class="cls-9" d="M1249.79,223.17l-346.29,1080.44c-75.41-38.48-86.19,38.48-86.19,38.48l-49.59-16c3.27-12.16.15-24.44-8.61-30.09-11.06-7.13-26.89-1.01-35.35,13.68-.36.63-.68,1.27-1,1.9l-38.48-12.41c2.61-11.64-.62-23.12-9.01-28.53-11.06-7.13-26.89-1.01-35.35,13.68-.09.15-.16.31-.24.46l-41.81-13.49c2.49-11.54-.77-22.87-9.08-28.23-11.06-7.13-26.89-1.01-35.35,13.68-.03.06-.06.12-.1.18l-36.37-11.73c2.22-11.3-1.05-22.3-9.21-27.56-10.96-7.07-26.57-1.11-35.09,13.27l-37.05-11.95c33.86-80.03-47.71-96.96-47.71-96.96L689.56,58.48c80.03,27.7,89.27-55.41,89.27-55.41l30.91,8.72c-.07.93-.13,1.87-.13,2.82,0,18.28,13.44,33.09,30.01,33.09,12.26,0,22.79-8.12,27.45-19.74l38.06,10.73c-.04.69-.1,1.38-.1,2.08,0,18.28,13.44,33.09,30.01,33.09,12.03,0,22.37-7.82,27.16-19.08l42.99,12.13c-.06.88-.12,1.77-.12,2.67,0,18.28,13.44,33.09,30.01,33.09,12.21,0,22.7-8.06,27.39-19.6l39.65,11.18c-.03.64-.09,1.28-.09,1.93,0,18.28,13.44,33.09,30.01,33.09,11.98,0,22.28-7.75,27.1-18.94l39.85,11.24c-33.86,87.73,50.79,101.58,50.79,101.58Z"/><path class="cls-8" d="M1243.63,220.09l-346.29,1080.44c-75.42-38.48-86.19,38.48-86.19,38.48l-49.59-16c3.27-12.16.15-24.44-8.61-30.09-11.06-7.13-26.89-1.01-35.35,13.68-.36.63-.68,1.27-1,1.9l-38.48-12.41c2.61-11.64-.62-23.12-9.01-28.53-11.06-7.13-26.89-1.01-35.35,13.68-.09.15-.16.31-.24.46l-41.81-13.49c2.49-11.54-.77-22.87-9.08-28.23-11.06-7.13-26.89-1.01-35.35,13.68-.03.06-.06.12-.1.18l-36.37-11.73c2.22-11.3-1.05-22.3-9.21-27.56-10.96-7.07-26.57-1.11-35.09,13.27l-37.05-11.95c33.86-80.03-47.71-96.96-47.71-96.96L683.41,55.41C763.44,83.11,772.68,0,772.68,0l30.91,8.72c-.07.93-.13,1.87-.13,2.82,0,18.28,13.44,33.09,30.01,33.09,12.26,0,22.79-8.12,27.45-19.74l38.06,10.73c-.04.69-.1,1.38-.1,2.08,0,18.28,13.44,33.09,30.01,33.09,12.03,0,22.37-7.82,27.16-19.08l42.99,12.13c-.06.88-.12,1.77-.12,2.67,0,18.28,13.44,33.09,30.01,33.09,12.21,0,22.7-8.06,27.39-19.6l39.65,11.18c-.03.64-.09,1.28-.09,1.93,0,18.28,13.44,33.09,30.01,33.09,11.98,0,22.28-7.75,27.1-18.94l39.85,11.24c-33.86,87.73,50.79,101.58,50.79,101.58Z"/><path class="cls-7" d="M710.59,695.4c1.69-6.81,3.16-12.67,4.94-19.83-17.76-6.73-34.54-13.09-52.09-19.73,1.9-5.82,3.42-10.48,5.4-16.56,17.54,6.34,34.35,12.42,51.67,18.68,2.48-6.44,4.63-12,7.09-18.39,3.99,1.49,7.21,2.7,11.77,4.41-5.51,18.84-10.81,36.99-16.43,56.21-4.92-1.91-8.42-3.26-12.35-4.79ZM872.19,915.52c7.69-25.5,15.18-50.31,22.92-75.96-53.55-20.62-105.97-41.18-160.18-61.24-8.14,27.16-15.86,52.93-23.78,79.37,9.58,4.47,17.85,8.29,27.05,10.11,7.1-14.56,8-30.16,14.85-43.8,14.26,5.49,27.36,10.54,40.94,15.77-3.89,13.77-7.48,26.5-11.31,40.06,8.93,3.34,16.9,6.31,25.78,9.63,4.33-13.63,8.32-26.2,12.46-39.25,12.96,4.54,24.9,8.2,36.32,14.01-4.22,14.54-8.12,27.96-12.08,41.58,9.29,3.95,17.06,8.45,27.03,9.72ZM921.69,751.86c3.59-12.15,6.89-23.31,10.32-34.89-54.26-19.97-107.16-39.44-160.94-59.23-3.47,12.34-8.13,22.83-9.55,34.75,18.35,7.59,51.78,12.06,60.82,31.93-24.25,1.71-47.77-.37-71.57,2-3.64,12.57-8.7,23.99-10.58,37.49,34.87-2.15,68.43-4.22,101.41-6.25,20.29,21.24,37.39,43.67,58.5,65.36,4.13-13.62,7.64-25.22,11.4-37.63-19.94-19.28-39.62-38.31-59.3-57.34.2-.41.4-.82.6-1.23,22.58,8.2,45.17,16.41,68.89,25.03ZM1018.9,238.59l1.8-15.47-7.92,12.23,6.12,3.24ZM1046.64,289.07c-78.88-25.56-156.3-50.64-234.84-76.09,7.13-27.78,15.26-54.53,23.9-82.39,79.24,24.99,157.44,49.65,236.4,74.56-8.59,28.31-16.76,55.23-25.46,83.92ZM870.01,200.82c-6.29-1.82-12.74-3.07-14.72-10-2.09-7.35,2.4-14.96,7.63-16.09,5.23-1.13,9,.44,13.73,1.41.93-1.83,1.83-3.61,2.69-5.31-31.63-22.31-50.72,35.68-11.46,36.72.57-1.79,1.17-3.71,2.13-6.71ZM881.8,213.84c3.71-14.66,9.12-27.26,10.92-41.07-3.12-.93-5.09-1.52-8.02-2.4-4.03,13.61-7.89,26.67-11.94,40.36,3.17,1.09,5.35,1.84,9.04,3.11ZM917.72,224.83c4.07-13.72,7.83-26.4,11.81-39.8-2.97-.84-5.12-1.45-8.01-2.26-1.83,6.18-3.9,15.36-6.43,21.28-.57-.15-4.42-18.5-5.91-26.37-3.28-.77-6.21-1.46-9.91-2.34-3.99,13.91-7.73,26.93-11.63,40.53,3.2.76,5.16,1.23,7.99,1.9,2.11-6.84,7.2-22.34,7.76-22.37,1.89,8.52,3.79,19.61,5.64,27.98,3.08.51,5.16.86,8.68,1.44ZM935.52,221.5c1.02-2.51,1.76-4.35,2.67-6.62,4.3.79,8.07,1.49,12.27,2.26.71-2.49,1.27-4.44,1.95-6.84-4.76-2.27-8.23-3.92-12.18-5.8,1.19-2.5,1.96-5.49,2.74-7.11,4.79.57,9.02,2.22,13.66,2.77.43-2.61.7-4.28,1.04-6.33-7.14-3.22-13.73-6.72-22.28-5.88-3.88,12.89-7.71,25.61-11.93,39.66,7.75,2.57,15.03,4.98,22.78,7.55,1.06-3.13,1.7-5.05,2.47-7.31-4.55-2.2-8.64-4.17-13.18-6.36ZM992.41,249.07c3.47-14.02,6.75-27.27,10.22-41.25-4.08-1.37-7.34-2.47-10.52-3.54-5.81,5.65-7.82,13.33-14.8,18.93v-23.42c-3.29-1.27-6.21-2.4-10.65-4.11-5.16,14.17-9.83,26.99-14.68,40.31,2.59,1.09,4.77,2.01,7.57,3.19,2.74-6.7,5.26-12.84,7.77-18.97.49.12,1.48,13.84,1.48,20.9,2.54.62,4.48,1.1,6.58,1.61,3.98-6.12,12.45-17.06,12.98-16.84-1.38,6.85-2.77,13.69-4.27,21.14,3.16.78,5.37,1.33,8.34,2.06ZM1029.13,215.69c-4.35-1.04-7.66-1.83-11.57-2.76-7.77,12.5-15.13,24.34-23.5,37.78,4.6.89,6.94,1.34,9.06,1.76,2.41-2.83,4.44-5.21,6.71-7.87,2.99,1.19,5.56,2.21,8,3.17.65,3.74,1.21,6.89,1.82,10.43,2.4.76,4.64,1.48,8.05,2.56,1.8-15.41,1.47-29.93,1.43-45.07ZM838.88,920.67c-3.63,10.39-6.9,19.76-10.43,29.86-42.92-16.9-85.55-36.6-129.53-50.55-4.02,12.16-8.5,22.72-9.59,34.97,43.01,16.83,86,33.69,128.99,50.57-3.18,11.01-5.97,20.65-9.04,31.27,9.6,3.82,18.5,7.37,28.82,11.48,9.9-32.74,19.47-64.37,29.09-96.2-9.75-5.18-18.62-8.58-28.32-11.4ZM670.86,788.09c-19.36-2.59-34.07-18.83-34.42-38.27-.33-18.78,12.32-37.91,32.46-38.02,20.75-.11,38.73,18.11,38.86,38.72.13,20.87-14.6,40.54-36.91,37.56ZM693.39,748.31c-2.88-9.79-15.45-16.76-25.12-16.99-11.07-.27-19.73,7.59-17.12,19.34,2.64,11.84,15.83,17.19,26.62,18.05,10.86.54,18.69-9.97,15.62-20.4ZM749.31,364.63c1.31-4.84,2.6-9.62,3.91-14.44,7.62,2.44,48.36,32.31,59.26,43.43-1.81,6.26-3.79,13.08-6.04,20.86h-71.58c1.28-5.33,2.44-10.1,3.85-15.97,5.95-.51,11.89-1.01,18.69-1.59,2.11-6.77,4.22-13.51,6.37-20.42-5.01-4.11-9.43-7.74-14.46-11.88ZM770.06,398.11h26.62c-7.99-5.59-14.48-10.12-22.31-15.59-1.59,5.74-2.77,9.99-4.32,15.59ZM750.83,217.13c-5.88-.32-5.01,4.69-5.85,7.51-11.86,39.95-217.14,725.36-244.45,814.17,2.43.96,4.83,1.98,7.23,3.03,58.97-202.35,196.04-654.14,243.96-821.59.24-.83-.53-1.94-.88-3.12ZM691.29,807.94c-21.48-9.11-42.52-17.22-65.24-25.86-1.83,6.48-3.07,10.86-4.62,16.35,13.96,6.86,28.31,11.03,43.83,17.13-18.69,2.5-35.31,5.09-52.93,10.24l-5.02,17.22,10.2,4.12c19.16,7.38,37.01,15.65,56.77,21.29,1.51-6.1,2.68-10.83,4.05-16.34-12.94-5.14-24.98-9.93-37.61-14.95,15.59-3.2,30.36-6.24,45.08-9.26,1.96-7.12,3.57-12.94,5.5-19.94ZM1086.69,338.21c-20.23,65.85-40.25,131.77-60.43,197.64-26.97,88.07-54.05,176.1-81.05,264.16-29.75,97.08-59.46,194.17-89.19,291.25-2.97,9.71-6.22,19.34-8.91,29.13-.92,3.35-3.96,7.45,2.47,11.59,1.62-3.45,3.12-5.85,3.91-8.46,14.2-46.84,28.23-93.73,42.46-140.56,20.68-68.02,41.47-136,62.25-203.99,16.01-52.37,32.13-104.71,48.13-157.08,16.42-53.77,32.72-107.59,49.14-161.37,12.39-40.57,24.94-81.1,37.27-121.69.94-3.1,3.08-6.64-.22-10.34-5.1,1.64-4.79,6.32-5.83,9.71ZM1019.03,423.52c-8.85-2.87-17.24-8.03-27.45-7.61-4.29,10.08-5.26,20.76-10.36,30.26-44.59-14.96-89.02-32.72-134.48-44.79-3.33,12.07-6.35,23-9.51,34.44,45.25,15.61,89.24,30.79,133.96,46.22-3.48,11.28-6.53,21.15-9.87,31.98,9.98,3.65,18.99,6.95,27.85,10.2,6.87-13.32,30.07-91.69,29.85-100.7ZM685.33,581.72c22.38,6.62,43.73,12.93,66.46,19.64,2.27-8,4.27-15.07,6.3-22.2-12.63-9.97-24.38-19.23-37.04-29.22h45.91c1.89-6.91,3.82-14.01,5.95-21.78-21.53-9.39-41.96-18.3-63.35-27.63-1.75,5.46-3.14,9.78-4.84,15.09,14.9,6.38,29.13,12.48,43.36,18.57-.19.51-.37,1.02-.56,1.52-15.43-.81-30.86-1.61-46.75-2.45-1.38,5.34-2.43,9.41-3.42,13.25,12.47,11.74,26.55,20.22,37.42,32.55-14.43-4.42-28.86-8.85-44.18-13.54-1.83,5.64-3.33,10.26-5.25,16.18ZM744.95,502.76c-34.1-12.63-22.12-50.49-14.35-76.62,22.21,6.6,42.77,14.14,64.4,21.84-2.22,26.43-15.77,67.48-50.05,54.78ZM752.27,485.49c17.12,4.86,26.24-9.19,27.1-24.51-13.75-4.84-27.25-9.59-41.37-14.56-6.79,16.17-4.72,33.68,14.27,39.07ZM984.54,544.73c-22.06-10.15-154.54-55.69-163.28-55.95-3.09,10.35-6.27,20.97-9.83,32.87,54.06,19.07,107.86,40.3,162.79,56.75,3.66-11.94,6.92-22.56,10.32-33.67ZM939.13,614.44c-14.43-24.54-42.6-40.22-69.7-46.61-23.29-5.49-50.1-4.7-68.43,12.54-11.69,11-29.3,44.05-19.96,59.71,7.37,1.62,15.59,3.43,24.2,5.32,2.87-14.22,4.88-29.71,18.88-37.42,13.38-7.36,32.34-3.89,46.21.37,15.84,4.87,34.4,15.04,43.68,29.3,10,15.37,4.67,30.98-2.77,46.01,7.96,4.94,15.29,9.5,23.12,14.36,22.2-19.31,18.15-60.84,4.77-83.58ZM678.79,612.1c20.82,7.49,41.44,14.9,62.94,22.63,1.92-6.37,3.41-11.31,5.1-16.92-22.3-8.1-43.22-15.7-64.64-23.47-2.57,6.5-5.3,11.5-3.39,17.77ZM555.44,1058.16c79.24,24.99,157.44,49.65,236.4,74.56-8.59,28.31-16.76,55.23-25.46,83.92-78.88-25.56-156.3-50.64-234.84-76.09,7.13-27.78,15.26-54.53,23.9-82.39ZM737.31,1140.5c-7.77,12.5-15.13,24.34-23.5,37.78,4.6.89,6.94,1.34,9.06,1.76,2.41-2.83,4.44-5.21,6.71-7.87,2.99,1.19,7.24,1.55,9.67,2.51.65,3.74-.47,7.55.15,11.09,2.4.76,4.64,1.48,8.05,2.56,1.8-15.41,1.47-29.93,1.43-45.07-4.35-1.04-7.66-1.83-11.57-2.76ZM686.41,1123.25c-5.16,14.17-9.83,26.99-14.68,40.31,2.59,1.09,4.77,2.01,7.57,3.19,2.74-6.7,5.25-12.84,7.77-18.97.49.12,1.48,13.84,1.48,20.9,2.54.62,4.48,1.1,6.58,1.61,3.98-6.12,12.45-17.06,12.98-16.84-1.38,6.85-2.77,13.69-4.27,21.14,3.16.78,5.37,1.33,8.34,2.06,3.47-14.02,6.75-27.27,10.22-41.25-4.08-1.37-7.34-2.47-10.52-3.54-5.81,5.65-7.82,13.33-14.8,18.93v-23.42c-3.29-1.27-6.21-2.4-10.65-4.11ZM655.14,1115.53c-3.88,12.89-7.7,25.61-11.93,39.66,7.75,2.57,15.03,4.98,22.78,7.55,1.06-3.13,1.7-5.05,2.47-7.31-4.55-2.2-8.64-4.17-13.18-6.36,1.02-2.51,1.76-4.35,2.67-6.62,4.3.79,8.07,1.49,12.27,2.26.71-2.49,1.27-4.44,1.95-6.84-4.76-2.27-8.23-3.92-12.18-5.8,1.19-2.5,1.96-5.49,2.74-7.11,4.79.57,9.02,2.22,13.66,2.77.43-2.61.7-4.28,1.04-6.33-7.14-3.22-13.73-6.72-22.28-5.88ZM619.02,1102.92c-3.99,13.91-7.73,26.93-11.63,40.53,3.2.76,5.16,1.23,7.99,1.9,2.11-6.84,7.2-22.34,7.76-22.37,1.89,8.52,3.79,19.61,5.64,27.98,3.08.51,5.16.86,8.68,1.44,4.07-13.72,7.83-26.4,11.81-39.8-2.97-.84-5.12-1.45-8.01-2.26-1.83,6.18-3.9,15.36-6.43,21.28-.57-.15-4.42-18.5-5.91-26.37-3.28-.77-6.21-1.46-9.91-2.34ZM604.46,1097.95c-4.03,13.61-7.89,26.67-11.94,40.36,3.17,1.09,5.35,1.84,9.04,3.11,3.71-14.66,9.12-27.26,10.92-41.07-3.12-.93-5.09-1.52-8.02-2.4ZM587.63,1135.11c.57-1.79,1.17-3.71,2.13-6.72-6.29-1.82-12.74-3.07-14.72-10-2.09-7.35,2.4-14.96,7.63-16.09,5.23-1.13,9,.44,13.73,1.41.93-1.83,1.83-3.61,2.69-5.31-31.63-22.31-50.72,35.68-11.46,36.72ZM740.96,1150.31l-9.14,13.71,9.14,2.48v-16.18ZM1170.43,286.61c-95.14,308.93-190.19,617.58-285.43,926.86-53.44-14.83-88.58,5.91-108.64,54.65l-282.77-91.11-5.08-1.38c20.56-71.59-44.09-94.5-44.09-94.5,0,0,241.48-853.07,271.22-939.87,56.61,9.6,89.21-19.27,109.83-69.07,95.46,29.56,190.84,59.1,286.09,88.6-10.34,56.39,4,100.22,58.86,125.81ZM1162.64,291.11c-50.98-26.65-67.17-70.04-58.48-125.45-91.99-28.59-183.28-56.97-275.49-85.63-37.56,86.23-109.95,68.69-109.95,68.69l-267.67,930.68c55.97,22.08,49.03,72.86,44.5,91.01l276.02,87.23c10.52-19.6,22.62-37.09,43-47.43,21.79-11.05,43.01-9.66,66.32-5.42,94.35-304.37,187.74-608.64,281.76-913.68ZM656.59,927.73c5.38-15.96,9.97-30.53,13.03-46.52-15.65-6.06-64.34-26.51-64.34-26.51l-15.74,47.22s14.22,5.58,13.71,4.06c-.51-1.52,10.66-29.45,10.66-29.45l13.2,6.09-8.88,28.43,12.44,3.55,8.14-24.27c.15-.37.3-.75.49-1.11,3.07,1.3,7.99,4.51,11.09,5.82-2.49,9.25-4.72,17.52-7.18,26.62,4.13,1.87,7.6,3.44,13.38,6.05Z"/><path id="SUB_TOP_ITEM" class="cls-6" d="M710.59,692.32c1.69-6.81,3.16-12.67,4.94-19.83-17.76-6.73-34.54-13.09-52.09-19.73,1.9-5.82,3.42-10.48,5.4-16.56,17.54,6.34,34.35,12.42,51.67,18.68,2.48-6.43,4.63-12,7.09-18.39,3.99,1.49,7.21,2.7,11.77,4.41-5.51,18.84-10.81,36.99-16.43,56.21-4.92-1.91-8.42-3.26-12.35-4.79ZM872.19,912.44c7.69-25.5,15.18-50.31,22.92-75.96-53.55-20.62-105.97-41.18-160.18-61.24-8.14,27.16-15.86,52.93-23.78,79.37,9.58,4.47,17.85,8.29,27.05,10.11,7.1-14.56,8-30.16,14.85-43.8,14.26,5.49,27.36,10.54,40.94,15.77-3.89,13.77-7.48,26.5-11.31,40.06,8.93,3.34,16.9,6.31,25.78,9.63,4.33-13.63,8.32-26.2,12.46-39.25,12.96,4.54,24.9,8.2,36.32,14.01-4.22,14.54-8.12,27.96-12.08,41.58,9.29,3.95,17.06,8.45,27.03,9.72ZM921.69,748.78c3.59-12.15,6.89-23.31,10.32-34.89-54.26-19.97-107.16-39.44-160.94-59.23-3.47,12.34-8.13,22.83-9.55,34.75,18.35,7.59,51.78,12.06,60.82,31.93-24.25,1.71-47.77-.37-71.57,2-3.64,12.57-8.7,23.99-10.58,37.49,34.87-2.15,68.43-4.22,101.41-6.25,20.29,21.24,37.39,43.67,58.5,65.36,4.13-13.62,7.64-25.22,11.4-37.63-19.94-19.28-39.62-38.31-59.3-57.34.2-.41.4-.82.6-1.23,22.58,8.2,45.17,16.41,68.89,25.03ZM1018.9,235.52l1.8-15.47-7.92,12.23,6.12,3.24ZM1046.64,285.99c-78.88-25.56-156.3-50.64-234.84-76.09,7.13-27.78,15.26-54.53,23.9-82.39,79.24,24.99,157.44,49.65,236.4,74.56-8.59,28.31-16.76,55.23-25.46,83.92ZM870.01,197.75c-6.29-1.82-12.74-3.07-14.72-10-2.09-7.35,2.4-14.96,7.63-16.09,5.23-1.13,9,.44,13.73,1.41.93-1.83,1.83-3.61,2.69-5.31-31.63-22.31-50.72,35.68-11.46,36.72.57-1.79,1.17-3.71,2.13-6.72ZM881.8,210.76c3.71-14.66,9.12-27.26,10.92-41.07-3.12-.93-5.09-1.52-8.02-2.4-4.03,13.61-7.89,26.67-11.94,40.36,3.17,1.09,5.35,1.84,9.04,3.11ZM917.72,221.76c4.07-13.72,7.83-26.4,11.81-39.8-2.97-.84-5.12-1.45-8.01-2.26-1.83,6.18-3.9,15.36-6.43,21.28-.57-.15-4.42-18.5-5.91-26.37-3.28-.77-6.21-1.46-9.91-2.34-3.99,13.91-7.73,26.93-11.63,40.53,3.2.76,5.16,1.23,7.99,1.9,2.11-6.84,7.2-22.34,7.76-22.37,1.89,8.52,3.79,19.61,5.64,27.98,3.08.51,5.16.86,8.68,1.44ZM935.52,218.43c1.02-2.51,1.76-4.35,2.67-6.62,4.3.79,8.07,1.49,12.27,2.26.71-2.49,1.27-4.44,1.95-6.84-4.76-2.27-8.23-3.92-12.18-5.8,1.19-2.5,1.96-5.49,2.74-7.11,4.79.57,9.02,2.22,13.66,2.77.43-2.61.7-4.28,1.04-6.33-7.14-3.22-13.73-6.72-22.28-5.88-3.88,12.89-7.71,25.61-11.93,39.66,7.75,2.57,15.03,4.98,22.78,7.55,1.06-3.13,1.7-5.05,2.47-7.31-4.55-2.2-8.64-4.17-13.18-6.36ZM992.41,245.99c3.47-14.02,6.75-27.27,10.22-41.25-4.08-1.37-7.34-2.47-10.52-3.54-5.81,5.65-7.82,13.33-14.8,18.93v-23.42c-3.29-1.27-6.21-2.4-10.65-4.11-5.16,14.17-9.83,26.99-14.68,40.31,2.59,1.09,4.77,2.01,7.57,3.19,2.74-6.7,5.26-12.84,7.77-18.97.49.12,1.48,13.84,1.48,20.9,2.54.62,4.48,1.1,6.58,1.61,3.98-6.12,12.45-17.06,12.98-16.84-1.38,6.85-2.77,13.69-4.27,21.14,3.16.78,5.37,1.33,8.34,2.06ZM1029.13,212.61c-4.35-1.04-7.66-1.83-11.57-2.76-7.77,12.5-15.13,24.34-23.5,37.78,4.6.89,6.94,1.34,9.06,1.76,2.41-2.83,4.44-5.21,6.71-7.87,2.99,1.19,5.56,2.21,8,3.17.65,3.74,1.21,6.89,1.82,10.43,2.4.76,4.64,1.48,8.05,2.56,1.8-15.41,1.47-29.93,1.43-45.07ZM838.88,917.59c-3.63,10.39-6.9,19.76-10.43,29.86-42.92-16.9-85.55-36.6-129.53-50.55-4.02,12.16-8.5,22.72-9.59,34.97,43.01,16.83,86,33.69,128.99,50.57-3.18,11.01-5.97,20.65-9.04,31.27,9.6,3.82,18.5,7.37,28.82,11.48,9.9-32.74,19.47-64.37,29.09-96.2-9.75-5.18-18.62-8.58-28.32-11.4ZM670.86,785.01c-19.36-2.59-34.07-18.83-34.42-38.27-.33-18.78,12.32-37.91,32.46-38.02,20.75-.11,38.73,18.11,38.86,38.72.13,20.87-14.6,40.54-36.91,37.56ZM693.39,745.23c-2.88-9.79-15.45-16.76-25.12-16.99-11.07-.27-19.73,7.59-17.12,19.34,2.64,11.84,15.83,17.19,26.62,18.05,10.86.54,18.69-9.97,15.62-20.4ZM749.31,361.55c1.31-4.84,2.6-9.62,3.91-14.44,7.62,2.44,48.36,32.31,59.26,43.43-1.81,6.26-3.79,13.08-6.04,20.86h-71.58c1.28-5.33,2.44-10.1,3.85-15.97,5.95-.51,11.89-1.01,18.69-1.59,2.11-6.77,4.22-13.51,6.37-20.42-5.01-4.11-9.43-7.74-14.46-11.88ZM770.06,395.03h26.62c-7.99-5.59-14.48-10.12-22.31-15.59-1.59,5.74-2.77,9.99-4.32,15.59ZM750.83,214.05c-5.88-.32-5.01,4.69-5.85,7.51-11.86,39.95-217.14,725.36-244.45,814.17,2.43.96,4.83,1.98,7.23,3.03,58.97-202.35,196.04-654.14,243.96-821.59.24-.83-.53-1.94-.88-3.12ZM691.29,804.87c-21.48-9.11-42.52-17.22-65.24-25.86-1.83,6.48-3.07,10.86-4.62,16.35,13.96,6.86,28.31,11.03,43.83,17.13-18.69,2.5-35.31,5.09-52.93,10.24l-5.02,17.22,10.2,4.12c19.16,7.38,37.01,15.65,56.77,21.29,1.51-6.1,2.68-10.83,4.05-16.34-12.94-5.14-24.98-9.93-37.61-14.95,15.59-3.2,30.36-6.24,45.08-9.26,1.96-7.12,3.57-12.94,5.5-19.94ZM1086.69,335.14c-20.23,65.85-40.25,131.77-60.43,197.64-26.97,88.07-54.05,176.1-81.05,264.16-29.75,97.08-59.46,194.17-89.19,291.25-2.97,9.71-6.22,19.34-8.91,29.13-.92,3.35-3.96,7.45,2.47,11.59,1.62-3.45,3.12-5.85,3.91-8.46,14.2-46.84,28.23-93.73,42.46-140.56,20.68-68.02,41.47-136,62.25-203.99,16.01-52.37,32.13-104.71,48.13-157.08,16.42-53.77,32.72-107.59,49.14-161.37,12.39-40.57,24.94-81.1,37.27-121.69.94-3.1,3.08-6.64-.22-10.34-5.1,1.64-4.79,6.32-5.83,9.71ZM1019.03,420.45c-8.85-2.87-17.24-8.03-27.45-7.61-4.29,10.08-5.26,20.76-10.36,30.26-44.59-14.96-89.02-32.72-134.48-44.79-3.33,12.07-6.35,23-9.51,34.44,45.25,15.61,89.24,30.79,133.96,46.22-3.48,11.28-6.53,21.15-9.87,31.98,9.98,3.65,18.99,6.95,27.85,10.2,6.87-13.32,30.07-91.69,29.85-100.7ZM685.33,578.64c22.38,6.62,43.73,12.93,66.46,19.64,2.27-8,4.27-15.07,6.3-22.2-12.63-9.97-24.38-19.23-37.04-29.22h45.91c1.89-6.91,3.82-14.01,5.95-21.78-21.53-9.39-41.96-18.3-63.35-27.63-1.75,5.46-3.14,9.78-4.84,15.09,14.9,6.38,29.13,12.48,43.36,18.57-.19.51-.37,1.02-.56,1.52-15.43-.81-30.86-1.61-46.75-2.45-1.38,5.34-2.43,9.41-3.42,13.25,12.47,11.74,26.55,20.22,37.42,32.55-14.43-4.42-28.86-8.85-44.18-13.54-1.83,5.64-3.33,10.26-5.25,16.18ZM744.95,499.68c-34.1-12.63-22.12-50.49-14.35-76.62,22.21,6.6,42.77,14.14,64.4,21.84-2.22,26.43-15.77,67.48-50.05,54.78ZM752.27,482.41c17.12,4.86,26.24-9.19,27.1-24.51-13.75-4.84-27.25-9.59-41.37-14.56-6.79,16.17-4.72,33.68,14.27,39.07ZM984.54,541.65c-22.06-10.15-154.54-55.69-163.28-55.95-3.09,10.35-6.27,20.97-9.83,32.87,54.06,19.07,107.86,40.3,162.79,56.75,3.66-11.94,6.92-22.56,10.32-33.67ZM939.13,611.37c-14.43-24.54-42.6-40.22-69.7-46.61-23.29-5.49-50.1-4.7-68.43,12.54-11.69,11-29.3,44.05-19.96,59.71,7.37,1.62,15.59,3.43,24.2,5.32,2.87-14.22,4.88-29.71,18.88-37.42,13.38-7.36,32.34-3.89,46.21.37,15.84,4.87,34.4,15.04,43.68,29.3,10,15.37,4.67,30.98-2.77,46.01,7.96,4.94,15.29,9.5,23.12,14.36,22.2-19.31,18.15-60.84,4.77-83.58ZM678.79,609.02c20.82,7.49,41.44,14.9,62.94,22.63,1.92-6.37,3.41-11.31,5.1-16.92-22.3-8.1-43.22-15.7-64.64-23.47-2.57,6.5-5.3,11.5-3.39,17.77ZM555.44,1055.08c79.24,24.99,157.44,49.65,236.4,74.56-8.59,28.31-16.76,55.23-25.46,83.92-78.88-25.56-156.3-50.64-234.84-76.09,7.13-27.78,15.26-54.53,23.9-82.39ZM737.31,1137.42c-7.77,12.5-15.13,24.34-23.5,37.78,4.6.89,6.94,1.34,9.06,1.76,2.41-2.83,4.44-5.21,6.71-7.87,2.99,1.19,7.24,1.55,9.67,2.51.65,3.74-.47,7.55.15,11.09,2.4.76,4.64,1.48,8.05,2.56,1.8-15.41,1.47-29.93,1.43-45.07-4.35-1.04-7.66-1.83-11.57-2.76ZM686.41,1120.17c-5.16,14.17-9.83,26.99-14.68,40.31,2.59,1.09,4.77,2.01,7.57,3.19,2.74-6.7,5.25-12.84,7.77-18.97.49.12,1.48,13.84,1.48,20.9,2.54.62,4.48,1.1,6.58,1.61,3.98-6.12,12.45-17.06,12.98-16.84-1.38,6.85-2.77,13.69-4.27,21.14,3.16.78,5.37,1.33,8.34,2.06,3.47-14.02,6.75-27.27,10.22-41.25-4.08-1.37-7.34-2.47-10.52-3.54-5.81,5.65-7.82,13.33-14.8,18.93v-23.42c-3.29-1.27-6.21-2.4-10.65-4.11ZM655.14,1112.45c-3.88,12.89-7.7,25.61-11.93,39.66,7.75,2.57,15.03,4.98,22.78,7.55,1.06-3.13,1.7-5.05,2.47-7.31-4.55-2.2-8.64-4.17-13.18-6.36,1.02-2.51,1.76-4.35,2.67-6.62,4.3.79,8.07,1.49,12.27,2.26.71-2.49,1.27-4.44,1.95-6.84-4.76-2.27-8.23-3.92-12.18-5.8,1.19-2.5,1.96-5.49,2.74-7.11,4.79.57,9.02,2.22,13.66,2.77.43-2.61.7-4.28,1.04-6.33-7.14-3.22-13.73-6.72-22.28-5.88ZM619.02,1099.84c-3.99,13.91-7.73,26.93-11.63,40.53,3.2.76,5.16,1.23,7.99,1.9,2.11-6.84,7.2-22.34,7.76-22.37,1.89,8.52,3.79,19.61,5.64,27.98,3.08.51,5.16.86,8.68,1.44,4.07-13.72,7.83-26.4,11.81-39.8-2.97-.84-5.12-1.45-8.01-2.26-1.83,6.18-3.9,15.36-6.43,21.28-.57-.15-4.42-18.5-5.91-26.37-3.28-.77-6.21-1.46-9.91-2.34ZM604.46,1094.87c-4.03,13.61-7.89,26.67-11.94,40.36,3.17,1.09,5.35,1.84,9.04,3.11,3.71-14.66,9.12-27.26,10.92-41.07-3.12-.93-5.09-1.52-8.02-2.4ZM587.63,1132.03c.57-1.79,1.17-3.71,2.13-6.72-6.29-1.82-12.74-3.07-14.72-10-2.09-7.35,2.4-14.96,7.63-16.09,5.23-1.13,9,.44,13.73,1.41.93-1.83,1.83-3.61,2.69-5.31-31.63-22.31-50.72,35.68-11.46,36.72ZM740.96,1147.23l-9.14,13.71,9.14,2.48v-16.18ZM1170.43,283.53c-95.14,308.93-190.19,617.58-285.43,926.86-53.44-14.83-88.58,5.91-108.64,54.65l-282.77-91.11-5.08-1.38c20.56-71.59-44.09-94.5-44.09-94.5,0,0,241.48-853.07,271.22-939.87,56.61,9.6,89.21-19.27,109.83-69.07,95.46,29.56,190.84,59.1,286.09,88.6-10.34,56.39,4,100.22,58.86,125.81ZM1162.64,288.03c-50.98-26.65-67.17-70.04-58.48-125.45-91.99-28.59-183.28-56.97-275.49-85.63-37.56,86.23-109.95,68.69-109.95,68.69l-267.67,930.68c55.97,22.08,49.03,72.86,44.5,91.01l276.02,87.23c10.52-19.6,22.62-37.09,43-47.43,21.79-11.05,43.01-9.66,66.32-5.42,94.35-304.37,187.74-608.64,281.76-913.68ZM656.59,924.65c5.38-15.96,9.97-30.53,13.03-46.52-15.65-6.06-64.34-26.51-64.34-26.51l-15.74,47.22s14.22,5.58,13.71,4.06c-.51-1.52,10.66-29.45,10.66-29.45l13.2,6.09-8.88,28.43,12.44,3.55,8.14-24.27c.15-.37.3-.75.49-1.11,3.07,1.3,7.99,4.51,11.09,5.82-2.49,9.25-4.72,17.52-7.18,26.62,4.13,1.87,7.6,3.44,13.38,6.05Z"/><path class="cls-10" d="M746.36,1115.29c15.15,4.78,30.3,9.55,45.49,14.35-5.26,17.34-10.36,34.15-15.52,51.17-10.07-21.8-20.06-43.64-29.96-65.51ZM809.29,1013.72c7.5,2.99,14.59,5.81,22.25,8.86-9.32-28.35-18.57-56.72-27.79-85.11-34.64-14.27-69.29-29.29-104.82-40.56-4.02,12.16-8.5,22.72-9.59,34.97,43.01,16.83,86,33.69,128.99,50.57-3.18,11.01-5.97,20.65-9.04,31.27ZM849.58,1128.91c1.62-3.45,3.12-5.85,3.91-8.46,1.66-5.48,3.31-10.97,4.97-16.45-1.26-3.81-2.53-7.62-3.8-11.43-2.58,8.23-5.26,16.43-7.55,24.74-.92,3.35-3.96,7.45,2.47,11.59ZM668.91,708.72c20.75-.11,38.73,18.11,38.86,38.72.13,20.87-14.6,40.54-36.91,37.56-19.36-2.59-34.07-18.83-34.42-38.27-.34-18.78,12.32-37.91,32.46-38.02ZM668.27,728.24c-11.07-.27-19.73,7.59-17.12,19.34,2.64,11.84,15.83,17.19,26.62,18.05,10.86.54,18.69-9.97,15.62-20.4-2.88-9.79-15.45-16.76-25.12-16.99ZM663.54,493.61c-23.65,78.92-49.62,165.5-73.84,246.2,1.23,3.46,2.45,6.92,3.7,10.38,24.24-81.08,49.71-166.07,73.49-245.7-1.11-3.63-2.23-7.25-3.35-10.88ZM648.33,890.98c.73.38,1.44.73,2.05.99-.22.81-.43,1.58-.64,2.38,3.13,7.51,6.26,15.02,9.43,22.52,4.26-13.01,7.89-25.39,10.45-38.74-6.71-2.6-19.49-7.84-31.91-12.98,3.51,8.62,7.05,17.23,10.62,25.83ZM885.77,1185.88c-1.64,5.28-3.26,10.56-4.9,15.83-23.31-4.24-44.53-5.64-66.32,5.42-7.5,3.8-13.87,8.58-19.46,14.07,1.19,2.55,2.39,5.11,3.58,7.66,20.57-21.8,48.97-28.83,86.32-18.47,1.44-4.66,2.87-9.31,4.3-13.97-1.18-3.51-2.35-7.03-3.53-10.54ZM687.6,571.63c-.72,2.23-1.46,4.49-2.28,7.01,1.65.49,3.26.96,4.9,1.45-.88-2.82-1.75-5.64-2.62-8.46ZM701.79,617.29c-2.22-7.11-4.44-14.22-6.65-21.33-4.31-1.57-8.62-3.13-12.96-4.71-2.57,6.5-5.29,11.5-3.39,17.77,7.67,2.76,15.33,5.51,23,8.27ZM715.53,672.49c-1.78,7.16-3.24,13.03-4.94,19.83,3.93,1.52,7.43,2.88,12.35,4.79.63-2.16,1.25-4.26,1.87-6.4-4.06-12.89-8.11-25.78-12.15-38.68-14.58-5.27-28.94-10.46-43.82-15.84-1.98,6.08-3.5,10.73-5.4,16.56,17.55,6.65,34.33,13,52.09,19.73ZM742.93,748.07c-1.14,4.11-2.13,8.32-2.75,12.77,2.24-.14,4.44-.27,6.67-.41-1.31-4.12-2.62-8.24-3.92-12.36ZM738.2,864.72c7.1-14.56,8-30.16,14.85-43.8,5.11,1.97,10.05,3.87,14.95,5.76-4.74-14.8-9.48-29.6-14.2-44.41-6.27-2.35-12.55-4.69-18.86-7.03-8.14,27.16-15.86,52.93-23.78,79.37,9.58,4.47,17.85,8.29,27.05,10.11ZM636.54,405.06c-23.08,79.89-48.64,169.04-73.4,255.66,1.29,4.11,2.56,8.23,3.87,12.33l73.4-255.19c-1.29-4.26-2.58-8.53-3.87-12.79ZM783.33,874.41c-.22.79-.44,1.56-.66,2.35.55.21,1.07.4,1.61.6-.32-.98-.63-1.97-.95-2.95ZM691.29,804.87c-21.48-9.11-42.52-17.22-65.24-25.86-1.83,6.48-3.07,10.86-4.62,16.35,13.96,6.86,28.31,11.03,43.83,17.13-15.97,2.14-30.44,4.35-45.31,8.16,3.79,9.67,7.62,19.33,11.49,28.97,14.11,5.74,27.93,11.49,42.83,15.74,1.51-6.1,2.68-10.83,4.05-16.34-12.94-5.14-24.98-9.93-37.61-14.95,15.59-3.2,30.36-6.24,45.08-9.26,1.96-7.12,3.57-12.94,5.5-19.94Z"/><path class="cls-3" d="M854.7,1501.41s-1.5,4.03-5.13,4.62c-15.52,2.52-54.12,11.03-34.63,58.49l-6.41,4.1-26.84,2.33s0-.01,0-.02c-5.99-16.12-20.71-25.22-32.89-20.32-8.71,3.51-13.72,13.23-13.7,24.38l-7.92,1.18c-6.42-14.86-51.45-20.82-63.11-16.12-8.16,3.29-13.08,12.03-13.65,22.29l-7.86,1.69c-6.85-13.23-58.04-17.9-69.01-13.48-7.44,3-12.19,10.54-13.4,19.63l-7.86,2.24c-7-12.47-55.61-17.32-66.26-13.03-7.1,2.86-11.74,9.86-13.21,18.38l-7.95,2.77s-51.37-55.52-116.01-48.34c0,0-144.67-220.6-233.94-522.26C25.65,728.28,9.23,581.55,9.23,581.55c0,0,65.67-4.1,49.25-92.34l30.74-8.65c3.58,11.66,12.48,19.93,22.93,19.93,13.6,0,24.63-14.01,24.63-31.29,0-.67-.05-1.33-.08-1.99l37.98-10.69c3.36,12.2,12.48,20.97,23.22,20.97,13.6,0,24.63-14.01,24.63-31.29,0-1.05-.04-2.08-.12-3.1l43.64-12.28c3,12.99,12.43,22.48,23.62,22.48,13.6,0,24.63-14.01,24.63-31.29,0-1.59-.12-3.14-.3-4.67l40.26-11.33c2.95,13.08,12.41,22.67,23.66,22.67,13.6,0,24.63-14.01,24.63-31.29,0-1.66-.13-3.28-.33-4.87l24.65-6.93h9.23s7.57,75.93,80.55,61.18c0,0,27.19,170.71,123.64,509.31,96.45,338.6,214.45,545.35,214.45,545.35Z"/><path id="SUB_TOP_ITEM-2" class="cls-4" d="M849.57,1506.03s-69.77-2.05-41.04,62.59l-35.46,3.29c-6.36-15.07-20.45-23.39-32.2-18.66-8.33,3.35-13.3,12.39-13.7,22.92l-39.49,3.67c-6.64-14.11-20.2-21.72-31.55-17.15-7.91,3.18-12.77,11.5-13.58,21.34l-46.41,4.31c-6.93-12.81-19.73-19.5-30.53-15.15-7.33,2.95-12.04,10.32-13.34,19.22l-44.01,4.09c-7.01-12.38-19.56-18.75-30.17-14.48-7.14,2.87-11.79,9.93-13.23,18.51l-31.87,2.96s-27.7-52.33-92.35-45.15c0,0-145.7-226.76-234.97-528.42C16.42,728.28,0,581.55,0,581.55c0,0,65.67-4.1,49.25-92.34l29.56-8.11c3.69,11.38,12.49,19.4,22.77,19.4,13.6,0,24.63-14.01,24.63-31.29,0-.37-.03-.73-.04-1.1l38.26-10.5c3.59,11.63,12.48,19.89,22.91,19.89,13.6,0,24.63-14.01,24.63-31.29,0-.55-.04-1.08-.06-1.62l44.02-12.08c3.4,12.12,12.48,20.81,23.18,20.81,13.6,0,24.63-14.01,24.63-31.29,0-.88-.05-1.74-.1-2.6l40.65-11.16c3.48,11.92,12.48,20.43,23.07,20.43,13.6,0,24.63-14.01,24.63-31.29,0-.74-.05-1.47-.09-2.2l34.97-9.6s10.26,83.11,82.08,63.62c0,0,25.65,168.27,122.1,506.87,96.45,338.6,218.55,549.97,218.55,549.97Z"/><path class="cls-2" d="M799.65,1408.32c-169.64-320.15-282.58-882.16-297.25-957.6,2.12-.41,4.29-.92,6.52-1.53,0,0,25.65,168.27,122.1,506.87,57.54,201.99,124.2,358.69,168.62,452.26Z"/><path class="cls-1" d="M518.23,1064.34c-22.61,6.18-45.37,7.85-67.45,14.76,26.1,6.36,52.19,12.72,79.05,19.27,4.18,11.67,8.3,23.14,13.13,36.62-29.2-7.55-55.56-18.35-83.33-26.28-24.24,17.83-48.45,35.64-73.92,54.38-4.66-12.49-8.91-23.87-13.59-36.42,18.03-11.96,35.75-23.72,54.29-36.02-15.61-13.58-48.02-.42-66.27,1.75-3.77-11.19-7.3-21.68-11.29-33.54,53.36-9.68,105.3-19.11,157.81-28.64,3.99,11.76,7.57,22.32,11.57,34.12ZM391.31,1177.87c9.9,26.28,19.23,50.88,29.62,74.56,15.4-.56,18.54-1.29,24.96-5.69-5.06-12.98-10.14-26.04-15.77-40.49,14.91-2.31,28.29-4.38,42.01-6.5,5.63,13.34,10.77,25.55,15.9,37.72,8.77-1.37,16.12-2.52,24.35-3.81-3.23-13.9-10.79-24.93-13.5-38.47,12.5-1.99,23.83-3.79,35.83-5.69,5.59,13.68,10.87,26.62,16.43,40.23,8.9-1.38,16.93-2.62,26.26-4.06-9.72-25.28-18.91-49.18-28.46-74.01-52.48,8.73-104.24,17.34-157.63,26.22ZM396.92,927.7c-23.62,2.97-51.07,12.64-62.6,35.17-12.86,25.12-3.33,52.55,9.54,75.4,9.03-1.43,16.6-3.71,23.61-7.9-5.91-13.83-13.08-28.95-4.21-43.27,8.61-13.9,27.65-19.18,42.74-21.42,16.09-2.39,34.21-1.28,47.73,8.72,12.73,9.42,14.55,22.47,18.35,36.72,9,.99,17.46,2.85,26.98.01-7.51-53.24-45.9-90.5-102.13-83.44ZM272.58,797.06c3.28,12.41,6.2,23.46,9.34,35.36,43.67-9.14,86.05-18.02,128.86-26.98,3.44,11.8,6.53,22.4,9.78,33.56,9.67-2.14,18.06-4,27.52-6.09-8.84-35.15-17.45-69.39-26.15-104-10.01,2.05-19.04,2.46-27.46,7.14,2.32,10.91,4.54,21.35,6.9,32.42-42.76,9.32-86.76,16.4-128.79,28.59ZM451.11,1323.87c43.37-6.34,85.89-12.55,128.63-18.79,4.75,10.07,9.01,19.12,13.27,28.15,9.6-1.21,18.24-1.26,27.57-4.7-12.75-29.97-25.14-59.1-37.65-88.52-9.7,1.57-18.18,2.94-27.68,4.48,3.79,9.75,7.17,18.44,11.31,29.07-42.77,6.44-86.15,11.44-128.49,20.38,4.63,10.63,8.63,19.81,13.04,29.93ZM374.25,869.03c-25.9,5.28-53.01,9.02-78.25,16.95,3.39,11.95,6.44,22.7,9.84,34.69,53.38-10.59,105.16-20.86,157.92-31.33-3.54-12.76-6.69-24.15-10.03-36.19-26.5,5.26-53,10.48-79.47,15.87ZM592.85,1155.92c-31.73-85.54-60.02-172.2-85.07-259.94-20.36-71.29-38.76-143.07-54.89-215.43-5.05-22.68-9.84-45.41-14.9-68.09-.42-1.89-2.04-3.52-3.09-5.27-.75.28-1.49.55-2.24.83.13,2.72-.08,5.51.46,8.15,3.06,14.95,6.03,29.93,9.53,44.78,10.08,42.79,20.15,85.59,30.67,128.27,23.33,94.61,51.39,187.84,82.75,280.07,31.14,91.58,66,181.73,105.54,270.03,8.31,18.56,16.84,37.03,25.41,55.47,1.39,3,2.2,6.93,8.4,7.75-1.1-3.52-1.58-6.1-2.66-8.4-36.77-77.95-69.93-157.42-99.9-238.21ZM287.36,1260.5c-28.32-68.17-54.34-137.2-76.81-207.49-17.15-53.64-33.56-107.55-48.56-161.82-13.45-48.65-24.66-97.92-36.58-146.98-4.29-17.64-7.69-35.49-11.73-53.19-.61-2.66.09-6.85-5.53-7.36.13,2.82-.09,5.28.41,7.57,5.81,26.62,11.57,53.26,17.65,79.83,17.43,76.18,37.97,151.51,61.01,226.19,30.45,98.72,65.09,195.93,106.36,290.64,21.76,49.94,45.65,98.95,68.69,148.32,1.72,3.68,3,8.04,7.83,10.24,2-4.71-.95-7.61-2.44-10.57-28.86-57.5-55.6-115.96-80.28-175.38ZM235.28,1019.66c2.25,5.99,3.95,10.52,5.8,15.45,20.62-5.32,40.1-10.35,60.78-15.69-2.74-8.12-5-14.81-7.33-21.7-15.33-2.38-29.74-4.61-46.15-7.16,13.65-8.09,25.36-15.04,37.45-22.21-2.49-7.97-4.61-14.76-6.98-22.36-21.27,2.51-41.67,4.91-63.47,7.48,1.72,5.81,3.07,10.38,4.49,15.18,15.54-2.01,29.92-3.87,44.3-5.74.09.54.19,1.07.28,1.61-12.75,7.3-25.51,14.61-38.52,22.06,1.79,5.19,3.17,9.18,4.49,13,16.61,2.6,32.25,5.05,47.88,7.5-.09.62-.18,1.24-.27,1.87-13.91,3.48-27.83,6.97-42.76,10.7ZM194.11,876.9c21.13-4.3,40.89-8.33,61.28-12.48,8.04,22.29,24.15,65.98-11.31,72.71-34.02,6.46-46.61-34.26-49.97-60.23ZM209.08,892.5c1.56,15.76,13.19,31.06,30.69,26.8,18.4-4.48,14.24-22.17,10.48-35.92-14.7,3.37-28.35,4.4-41.17,9.11ZM335.2,1288.46c21.24-2.28,41.38-5.59,62.62-9.49-2.47-5.18-4.28-8.96-6.43-13.47-13.34,2.25-26.08,4.4-40.73,6.88,11.47-11.45,21.36-21.33,31.27-31.22-2.65-6.47-4.82-11.75-7.35-17.93-20.83,3.39-41.04,6.68-62.48,10.16,2.18,5.09,3.83,8.93,5.84,13.61,14.71-2.38,28.85-4.67,42.77-6.92-10.63,11.04-21.09,21.91-32.03,33.27,2.21,5.12,4.3,9.93,6.53,15.11ZM320.44,1150.18c38.02.67,61.25,62.85,13.78,67.93-40.85.39-64.53-68.83-13.78-67.93ZM348.77,1187.61c-1.29-22.48-42.54-30.07-45.16-6.73-2.65,23.57,40.62,29.35,45.16,6.73ZM185.69,848.96c4.68-3.54,8.94-6.75,14.07-10.63-1.62-6.81-3.26-13.71-5-21.02-5.73-1.12-10.99-2.14-17.31-3.37-1.17-4.79-2.4-9.87-4.09-16.79,23.27,3.27,44.96,6.33,67.89,9.55,2.03,7.96,3.79,14.89,5.76,22.61-18.45,12.15-36.48,24.03-55.9,36.82-1.95-6.18-3.61-11.43-5.43-17.17ZM205.67,817.41c1.62,6.11,2.78,10.48,4.37,16.46,7.67-4.91,14.74-7.31,20.17-14.65-8.79-.65-16.01-1.18-24.54-1.81ZM340.96,1302.56c6.3,14.27,11.94,27.04,17.96,40.69,4.29-.63,7.06-1.04,10.85-1.6-3.66-8.92-7.01-17.11-10.9-26.58,5.86-.48,10.35-.85,14.87-1.22,3.78,8.06,7.14,15.23,10.72,22.88,3.62-.56,6.65-1.03,10.64-1.65-3.22-8.19-6.05-15.4-9.41-23.93,5.3-.56,9.04-.95,12.77-1.34,4.08,8.67,7.75,16.47,11.63,24.73,3.7-.62,6.74-1.14,10.93-1.84-6.08-13.76-11.74-26.56-17.64-39.91-20.69,3.24-40.64,6.37-62.42,9.78ZM265.46,1108.95c17.81-2.35,34.19-6.58,50.74-8.2,2.92,7.04,5.36,12.93,8.08,19.48,3.86-1.16,6.74-2.03,10.44-3.14-6.72-18.85-12.06-37.05-19.83-54.59-3.82,1.08-6.5,1.83-9.81,2.76,1.76,6.39,3.33,12.11,5.14,18.71-17,3.23-33.17,6.31-50.1,9.53,1.95,5.64,3.46,10,5.34,15.44ZM312.56,1053.2c-1.82-5.67-3.32-10.33-5.19-16.17-21.57,3.92-41.78,7.02-62.68,12.06,2.21,5.97,3.91,10.54,5.72,15.42,21.08-3.83,41-7.46,62.15-11.3ZM330.42,554.22l-.48,11.78,5.05-.72-4.57-11.06ZM157.08,648.41c-6.4-28.32-11.21-55.94-15.88-84.44,74.22-18.3,147.36-36.33,221.49-54.61,5.52,29.11,10.78,56.84,16.3,85.93-73.1,20.73-148.19,34.68-221.91,53.12ZM320.39,588.63c3.3-1.08,5.22-1.71,7.06-2.31.99-3.8,1.87-7.2,2.79-10.75,2.95-.37,5.35-.68,7.44-.94,2.33,3.01,4.26,5.5,6.02,7.79,4.11-.34,4.48-.65,7.89-2.45-6.35-13.47-12.31-26.11-18.48-39.19-3.91.89-6.96,1.59-10.59,2.42-.91,15.15-2.94,29.66-2.14,45.44ZM273.73,555.22c2.05,14.65,3.96,28.36,5.97,42.72,3.05-.78,4.67-1.19,7.07-1.8-.57-7.16-1.1-13.86-1.84-23.16,3.96,8.07,6.77,13.8,9.81,19.98,2.24-.41,4.17-.76,6.36-1.16.57-8.17,1.1-15.71,1.62-23.25.37-.07.74-.13,1.11-.2,2.1,7.4,4.2,14.8,6.28,22.1,4.08-.39,3.91-.06,7.46-2.95-3.09-13.06-6.21-26.29-9.56-40.44-4.16,1-7.09,1.7-10.43,2.5-.82,7.79-1.56,14.8-2.57,24.35-4.33-8.51-7.53-14.8-10.93-21.49-3.3.89-6,1.62-10.33,2.79ZM246.24,561.82c-.07,12.07,4.6,34.87,8.55,42.11,6.85-1.11,13.99-1.57,20.45-6.28-1.18-2.29-2.11-4.1-2.99-5.8-4.1.59-7.61,1.09-11.71,1.68-.71-2.75-1.29-4.99-1.93-7.44,4.15-1.66,7.71-3.08,11.53-4.61-.75-2.65-1.31-4.63-1.88-6.64-3.84.35-7.01.64-10.88.99-.46-2.58-.86-4.79-1.28-7.13,3.97-1.53,7.25-2.79,11.08-4.26-.65-2.75-1.16-4.96-1.82-7.78-6.98,1.89-13.17,3.56-19.12,5.17ZM211.36,572.63c2.43,12.84,4.96,26.15,7.62,40.21,3.04-1.03,4.62-1.56,6.66-2.25-.51-6.68-1.25-13.19-2.26-19.82.59-.22,1.19-.44,1.79-.66,4.62,5.87,9.24,11.74,14.09,17.89,2.73-.96,4.95-1.74,7.9-2.78-2.61-13.91-5.11-27.27-7.74-41.28-2.63.48-4.3.79-7.06,1.3.74,7.13,1.37,13.14,2,19.16-.63.12-1.26.24-1.89.36-4.3-5.64-8.59-11.28-13.02-17.09-3.56,1.41-5.99,1.74-8.1,4.96ZM197.16,574.69c2.6,13.65,5.07,26.66,7.59,39.87h5.93c.77-7.7-2.35-29.33-6.55-42.59-2.1.82-4.21,1.64-6.97,2.72ZM181.94,618.81c5.93.94,12.02,1.85,17.31-3.87-.4-1.74-.84-3.69-1.35-5.93-4.07.55-7.58,1.03-10.69,1.45-9.66.24-12.06-18.02-3.85-23.91,2.84-1.01,5.87-2.08,9.24-3.28.26-2,.53-4,.79-6.02-26.4-2.92-29.85,28.03-11.46,41.56ZM653.84,1430.34c10.77,21.13,21.42,42.03,32.82,64.4-35.65,8.23-73.33,10.4-109.64,14.92-36.85,4.59-73.7,9.17-110.6,13.39-11.99-20.21-23.1-40.72-33.81-63.46,74.4-9.84,147.31-19.47,221.23-29.24ZM503.93,1500.32l-3.4-4.98c-3.36,1.14-7.98,1.49-11.23.5-6.42-1.95-11.73-8.62-10.54-13.06.44-4.45,4.76-6.07,11.95-7.3l-2.08-3.94c-13.1-3.55-21.54,7.21-17,17.84,4.94,11.56,21.38,18.11,32.3,10.93ZM517.8,1499.91c-5.73-10.81-10.92-20.62-16.25-30.69-2.5.28-4.5.5-8.07.89,5.63,10.8,10.75,20.61,16.06,30.8,2.71-.33,4.95-.6,8.27-1ZM551.56,1495.71c-5.96-11.38-11.23-21.46-16.54-31.6-2.68.85-3.99,1.27-5.85,1.86,1.6,4.38,3.06,8.39,4.8,13.16-3.2-.74-13.06-9.45-18.57-11.85l-7.71,1.43c5.49,10.39,10.83,20.7,16.04,30.56,2.58-.32,4.27-.53,6.7-.83-2.31-5.42-4.32-10.14-6.83-16.02,8.07,4.63,13.6,9.68,20.27,14l7.7-.71ZM579.01,1491.91c-1.38-1.79-3.47-4.53-4.15-5.41-4.69,0-7.97.83-12.26.83-.74-1.65-2.11-3.91-3-5.87,3.42-1.05,7.02-1.35,10.41-2.75-1.75-2.16-3.8-4.94-3.8-4.94,0,0-4.51.66-9.79.96-.52-1.14-2.16-4.05-2.94-5.77,3.46-1.33,7-1.75,10.87-3.23-1.4-2.08-2.33-3.45-3.34-4.96-6.39,1.01-12.29,1.94-18.92,2.98,3.65,10.84,9.92,20.81,15.3,30.88,7.5-.07,14-.68,21.63-2.72ZM622.82,1486.08c-6.16-9.96-12.31-20.04-18.69-30.33-3.06.35-5.79.63-9.52,1.05.55,5.87,1.66,10.76,2.31,17.75-5.83-6.13-11.13-10.7-16.44-16.31-2.88.57-6.07,1.18-9.98,1.94,5.28,11.57,9.89,21.68,14.67,32.16,2.69-.76,5.85-1.03,7.77-1.57-1.22-4.17-4.3-9.41-5.46-13.41,1.24.24,12.07,11.96,12.07,11.96,0,0,3.65.31,6.24-.72-.15-5.33-1.09-16.46-.63-16.66,3.06,5.13,5.22,9.26,8.8,15.28,2.71-.74,6.22-.44,8.84-1.16ZM655.26,1481.6c-9.06-10.13-17.86-19.95-27.05-30.22-3.36,1.09-6.24,2.03-8.89,2.88,1.31,11.22,2.53,21.61,3.73,31.81h8.27s-.72-5.47.05-8.22l7.84-1.35c2.78,1.46,7.66,7.12,7.66,7.12,0,0,5.43-.03,8.38-2.02ZM635.16,1469.92l-6.58-8.29,1.08,9.19,5.5-.9ZM728.58,1476.66c-9.5,17.68-4.93,35.53,1.48,53.28-42.55,8.47-86.7,11.36-129.79,16.49-21.75,2.59-43.49,5.18-65.24,7.77-23.33,2.77-47.73,7.92-71.21,7.92-28.3-38.93-65.61-60.84-115.74-60.45-30.9-48.16-54.47-102.82-78.26-154.77-24.94-54.45-47.79-109.84-69.01-165.84-42.79-112.92-78.76-228.47-108.01-345.62-16.51-66.13-34.4-133.83-43.35-201.45,20.33-11.22,35.84-19.77,47.23-41.07,12.71-23.77,13.11-48.48,13.11-74.75,88.99-22.58,177.28-44.97,266.75-67.67,7.57,23.8,15.48,45.66,35.27,62.16,20.42,17.03,40.95,18.31,66.27,18.31,60.88,317.29,153.84,624.04,296.69,915.81-18.62,5.55-36.39,11.64-46.2,29.9ZM766.55,1442.78c-140.45-287.92-232.24-590.93-292.96-904.09-56.7,2-85.48-30.38-101-80.2-85.9,21.69-171.39,43.28-257.32,64.99,1.39,49.61-10.95,91.64-59.72,115.43,4.81,34.05,13.85,67.9,21.12,101.52,7.19,33.22,14.61,66.4,22.76,99.4,56.04,226.74,137.44,451.61,250.75,656.26,49.6,1.7,87.18,23.73,116.17,60.84,62.07-5.25,245.51-28.33,255.31-32.38-14.66-40.14,6.32-70.26,44.88-81.77Z"/><path class="cls-5" d="M381.93,1241.15c-9.14,9.12-18.28,18.25-28.64,28.6-.62.1-1.23.21-1.86.31,11-10.98,20.55-20.52,30.05-30.01.15.37.29.71.45,1.09ZM251.63,988.65c12.27-7.28,23.09-13.69,34.2-20.29-.17-.54-.32-1.03-.49-1.56-11.65,6.91-23.02,13.65-36.19,21.47.84.13,1.65.26,2.48.38ZM360.14,1092.4c17.79-2.11,49.01-14.65,65.04-2.73.67-.45,1.33-.88,2.01-1.33-15.61-13.58-48.02-.42-66.27,1.75-3.55-10.53-6.9-20.48-10.61-31.5-.49.09-.97.18-1.46.26,3.99,11.86,7.53,22.35,11.29,33.54ZM219.87,968.66c15.46-2,29.77-3.85,44.09-5.71.42-.24.84-.48,1.27-.73-.09-.54-.19-1.07-.28-1.61-14.38,1.86-28.77,3.72-44.3,5.74-1.24-4.18-2.44-8.24-3.85-13.04-.47.06-.93.11-1.4.17,1.72,5.81,3.07,10.38,4.49,15.18ZM309.65,1081.92c.45-.09.89-.17,1.33-.25-1.63-5.92-3.06-11.15-4.61-16.77-.43.12-.85.24-1.3.37,1.57,5.71,3,10.92,4.58,16.66ZM312.56,1053.2c-.23-.71-.44-1.37-.66-2.05-20.62,3.75-40.13,7.3-60.73,11.04-1.6-4.31-3.13-8.44-4.99-13.46-.5.12-1,.23-1.5.35,2.21,5.97,3.91,10.54,5.72,15.42,21.08-3.83,41-7.46,62.15-11.3ZM349.53,1185.3c-1.24-21.7-39.72-29.52-44.75-9.04,7.28-17.51,42.78-9.49,43.98,11.35-.06.32-.16.61-.24.92.42-1.01.78-2.07,1.01-3.23ZM334.23,1218.11c15.14-1.62,23.07-9.06,25.63-18.45-3.19,8.28-10.99,14.66-24.87,16.15-27.52.27-47.21-31.05-41.63-51.26-7.87,20.02,12.27,53.84,40.86,53.57ZM316.19,1100.75c2.92,7.04,5.36,12.93,8.08,19.48,3.86-1.16,6.74-2.03,10.44-3.14-.22-.63-.44-1.25-.66-1.88-3.04.91-5.67,1.71-9.01,2.71-2.72-6.55-5.16-12.44-8.08-19.48-16.54,1.62-32.92,5.85-50.74,8.2-1.64-4.75-3.02-8.73-4.64-13.41-.49.09-.98.19-1.47.28,1.95,5.64,3.46,10,5.34,15.44,17.81-2.35,34.19-6.58,50.74-8.2ZM445.33,1245.31c-5.6,3.62-9.33,4.29-23.63,4.81-10.12-23.05-19.24-47-28.85-72.51-.52.09-1.03.17-1.54.26,9.9,26.28,19.23,50.88,29.62,74.56,15.4-.56,18.54-1.29,24.96-5.69-.18-.47-.37-.95-.56-1.43ZM631.38,1477.85c-.44,1.6-.39,4.09-.26,5.91h.98s-.42-3.24-.26-5.99l-.46.08ZM489.41,1469.24c-9.3-2.52-16.22,2.19-17.85,8.92,2.51-5.45,8.88-8.83,17.08-6.61l1.04,1.97c.59-.12,1.17-.23,1.81-.34l-2.08-3.94ZM335.2,1288.46c21.24-2.28,41.38-5.59,62.62-9.49-.34-.71-.64-1.34-.96-2-20.6,3.76-40.23,6.96-60.89,9.18-2.08-4.82-4.04-9.33-6.08-14.07-.41.42-.81.84-1.22,1.27,2.21,5.12,4.3,9.93,6.53,15.11ZM529.53,1496.34c.53-.07,1.07-.13,1.67-.21-1.8-4.22-3.43-8.04-5.24-12.3-.77-.48-1.54-.95-2.36-1.42,2.18,5.11,3.99,9.36,5.94,13.92ZM580.51,1302.77c-42.74,6.24-85.26,12.46-128.63,18.79-4.13-9.48-7.91-18.15-12.17-27.95-.54.11-1.09.21-1.63.33,4.63,10.63,8.63,19.81,13.04,29.93,43.37-6.34,85.89-12.55,128.63-18.79,4.75,10.07,9.01,19.12,13.27,28.15,9.6-1.21,18.24-1.26,27.57-4.7-.26-.61-.51-1.2-.77-1.8-8.75,2.91-16.97,3.05-26.04,4.2-4.25-9.03-8.52-18.08-13.27-28.15ZM565.75,1271.48c.53-.08,1.05-.15,1.58-.23-3.84-9.88-7.03-18.08-10.51-27.02-.53.09-1.03.17-1.57.25,3.54,9.11,6.73,17.3,10.5,26.99ZM535.47,1187.19c-12,1.91-23.32,3.71-35.83,5.69.14.72.35,1.4.52,2.1,11.99-1.9,22.96-3.65,34.54-5.49,5.59,13.68,10.87,26.62,16.43,40.23,8.9-1.38,16.93-2.62,26.26-4.06-.27-.7-.53-1.37-.79-2.07-8.66,1.34-16.31,2.52-24.7,3.82-5.56-13.61-10.84-26.55-16.43-40.23ZM488.03,1237.47c8.77-1.37,16.12-2.52,24.35-3.81-.17-.72-.39-1.4-.58-2.1-7.68,1.2-14.72,2.3-23,3.6-5.13-12.17-10.28-24.38-15.9-37.72-13.72,2.12-27.11,4.2-42.01,6.5.27.7.53,1.37.8,2.07,14.27-2.21,27.21-4.21,40.44-6.26,5.63,13.34,10.77,25.55,15.9,37.72ZM605.73,1486.57c.29-.08.58-.17.85-.27-.1-3.47-.53-9.37-.69-13.14-.23-.4-.46-.79-.71-1.2-.41.17.28,8.92.55,14.62ZM374.51,1311.54c-4.52.37-9.01.74-14.87,1.22.31.75.59,1.44.89,2.17,5.04-.41,9.14-.75,13.21-1.09,3.78,8.06,7.14,15.23,10.72,22.88,3.62-.56,6.65-1.03,10.64-1.65-.28-.7-.54-1.37-.81-2.06-3.23.5-5.94.92-9.05,1.4-3.58-7.64-6.94-14.82-10.72-22.88ZM191.11,866.13c19.42-12.79,37.45-24.67,55.9-36.82-.13-.53-.26-1.02-.39-1.54-18.04,11.88-35.73,23.53-54.74,36.06-1.79-5.68-3.34-10.57-4.99-15.78-.4.31-.8.6-1.21.91,1.81,5.74,3.47,10.99,5.43,17.17ZM251.02,881.08c-14.7,3.37-28.35,4.4-41.17,9.11.06.66.17,1.31.27,1.96,12.52-4.4,25.82-5.49,40.13-8.77,2.15,7.84,4.41,16.95,2.55,24.18,3.12-7.51.6-17.79-1.78-26.48ZM399.23,1307.49c-3.73.39-7.47.79-12.77,1.34.29.74.56,1.42.84,2.14,4.47-.47,7.82-.82,11.16-1.18,4.08,8.67,7.75,16.47,11.63,24.73,3.7-.62,6.74-1.14,10.93-1.84-.3-.69-.59-1.35-.9-2.03-3.35.56-6.08,1.02-9.26,1.56-3.88-8.25-7.55-16.05-11.63-24.73ZM206.44,815.11c.22.84.43,1.63.64,2.41,7.57.56,14.23,1.05,22.04,1.62.64-.7,1.26-1.42,1.86-2.23-8.79-.65-16.01-1.18-24.54-1.81ZM395.62,735.48c-.38.19-.76.35-1.14.56,2.18,10.23,4.27,20.06,6.46,30.36.4-.09.81-.17,1.21-.26-2.23-10.47-4.34-20.39-6.53-30.67ZM317.94,1247c14.11-2.28,27.68-4.48,41.05-6.64.83-.86,1.66-1.72,2.49-2.59-13.92,2.25-28.05,4.54-42.77,6.92-1.73-4.03-3.21-7.47-4.97-11.57-.55.09-1.09.18-1.65.27,2.18,5.09,3.83,8.93,5.84,13.61ZM721.03,1522.67c.63-.16,1.1-.31,1.41-.43-5.48-15.01-5.98-28.61-2.44-40.37-4.17,11.79-4.16,25.55,1.03,40.8ZM281.93,832.42c43.67-9.14,86.05-18.02,128.86-26.98,3.44,11.8,6.53,22.4,9.78,33.56,9.67-2.14,18.06-4,27.52-6.09-.17-.68-.34-1.35-.51-2.03-8.93,1.98-17.02,3.77-26.24,5.81-3.25-11.15-6.34-21.75-9.78-33.56-42.81,8.97-85.19,17.84-128.86,26.98-2.98-11.27-5.76-21.8-8.83-33.41-.43.12-.86.23-1.29.35,3.28,12.41,6.2,23.46,9.34,35.36ZM467.19,1520.73c-11.62-19.59-22.41-39.47-32.81-61.39-.59.08-1.17.16-1.76.23,10.71,22.74,21.82,43.25,33.81,63.46,36.9-4.22,73.74-8.8,110.6-13.39,36.31-4.52,73.99-6.69,109.64-14.92-.33-.65-.65-1.28-.98-1.92-35.13,7.91-72.17,10.09-107.89,14.53-36.85,4.59-73.7,9.17-110.6,13.39ZM230.43,999.6c16.34,2.56,31.73,4.97,47.1,7.38.43-.11.85-.21,1.28-.32.09-.62.18-1.24.27-1.87-15.63-2.45-31.27-4.9-47.88-7.5-1.18-3.42-2.43-7.02-3.95-11.44-.44.25-.87.5-1.31.75,1.79,5.19,3.17,9.18,4.49,13ZM358.92,1343.25c4.29-.63,7.06-1.04,10.85-1.6-.29-.7-.56-1.38-.85-2.07-3.02.45-5.58.82-9.23,1.36-5.73-12.99-11.12-25.19-17.06-38.64-.56.09-1.11.17-1.67.26,6.3,14.27,11.94,27.04,17.96,40.69ZM301.87,1019.43c-.22-.66-.44-1.3-.66-1.94-20.15,5.2-39.21,10.12-59.35,15.32-1.65-4.39-3.18-8.46-5.08-13.52-.5.13-.99.25-1.5.37,2.25,5.99,3.95,10.52,5.8,15.45,20.62-5.32,40.1-10.35,60.78-15.69ZM386.49,1160.78c-4.48-12-8.59-23.01-13.06-34.98-.44.29-.87.58-1.31.87,4.68,12.55,8.93,23.93,13.59,36.42,25.47-18.74,49.67-36.55,73.92-54.38,27.77,7.93,54.13,18.73,83.33,26.28-.34-.95-.67-1.87-1-2.8-28.49-7.52-54.36-18.03-81.56-25.79-24.24,17.83-48.45,35.64-73.92,54.38ZM472.84,1008.82c-3.79-14.26-5.62-27.31-18.35-36.72-13.52-10.01-31.64-11.12-47.73-8.72-15.09,2.24-34.13,7.52-42.74,21.42-1.43,2.31-2.4,4.64-3.07,6.98.61-1.56,1.34-3.12,2.3-4.67,8.61-13.9,27.65-19.18,42.74-21.42,16.09-2.39,34.21-1.28,47.73,8.72,12.73,9.42,14.55,22.47,18.35,36.72,9,.99,17.46,2.85,26.98.01-.1-.69-.22-1.36-.33-2.04-9.08,2.38-17.24.67-25.88-.28ZM331.2,970.38c-7.77,22.99,1.06,47.29,12.65,67.89,9.03-1.43,16.6-3.71,23.61-7.9-.21-.5-.43-1.01-.65-1.52-6.62,3.68-13.76,5.78-22.19,7.11-11.2-19.91-19.87-43.28-13.42-65.58ZM305.84,920.68c53.38-10.59,105.16-20.86,157.92-31.33-.19-.7-.38-1.35-.57-2.04-52.29,10.37-103.65,20.56-156.58,31.06-3.22-11.34-6.12-21.59-9.29-32.77-.44.13-.88.25-1.32.38,3.39,11.95,6.44,22.7,9.84,34.69ZM244.08,937.13c12.11-2.3,18.2-8.91,20.66-17.5-2.86,7.46-8.89,13.1-19.89,15.19-33.12,6.29-45.93-32.14-49.68-58.14-.36.07-.7.14-1.06.22,3.36,25.97,15.95,66.69,49.97,60.23ZM110.56,517.96c-.26.06-.51.13-.77.19,0,20.62-.28,40.28-6.53,59.27,6.79-19.06,7.27-38.78,7.29-59.47ZM273.02,589.54c-4.1.59-7.61,1.09-11.71,1.68-.54-2.06-1-3.84-1.46-5.63-.42.17-.81.32-1.24.5.64,2.45,1.22,4.69,1.93,7.44,4.1-.59,7.61-1.09,11.71-1.68.7,1.35,1.43,2.78,2.29,4.44.49-.31.99-.59,1.47-.95-1.18-2.29-2.11-4.1-2.99-5.8ZM224.42,590.39c-.34.13-.68.25-1.03.38.91,5.96,1.57,11.85,2.07,17.83.31-.11.63-.21.96-.32-.46-6.03-1.14-11.93-2-17.89ZM240.2,561.64c-2.63.48-4.3.79-7.06,1.3.08.73.15,1.41.22,2.13,2.18-.4,3.78-.7,6.07-1.12,2.5,13.36,4.9,26.15,7.38,39.37.37-.13.73-.26,1.13-.4-2.61-13.91-5.11-27.27-7.74-41.28ZM269.03,572.53c-3.84.35-7.01.64-10.88.99-.34-1.88-.64-3.57-.94-5.25-.37.14-.72.28-1.11.43.42,2.34.82,4.56,1.28,7.13,3.87-.35,7.03-.64,10.88-.99.43,1.53.86,3.04,1.37,4.84.43-.17.85-.34,1.28-.51-.75-2.65-1.31-4.63-1.88-6.64ZM266.75,562.59c.4-.15.79-.3,1.2-.46-.65-2.75-1.16-4.96-1.82-7.78-6.98,1.89-13.17,3.56-19.12,5.17,0,.66.01,1.37.04,2.09,5.7-1.54,11.64-3.15,18.31-4.95.51,2.17.93,3.97,1.39,5.94ZM219.46,567.67c4.43,5.81,8.72,11.45,13.02,17.09.63-.12,1.26-.24,1.89-.36-.07-.7-.15-1.42-.22-2.12-.3.06-.6.11-.9.17-4.3-5.64-8.59-11.28-13.02-17.09-3.56,1.41-5.99,1.74-8.1,4.96.07.35.13.71.2,1.06,1.89-2.08,4.1-2.51,7.13-3.71ZM198.67,606.7c-4.07.55-7.58,1.03-10.69,1.45-7,.18-10.17-9.37-8.26-16.88-3.32,7.68-.26,19.38,7.49,19.19,3.11-.42,6.62-.9,10.69-1.45.39,1.73.74,3.25,1.06,4.66.36-.32.71-.67,1.06-1.04-.4-1.74-.84-3.69-1.35-5.93ZM193.38,580.96c.26-2,.53-4,.79-6.02-12.59-1.39-19.94,4.91-22.22,13.36,2.93-7.25,10.04-12.31,21.45-11.05-.17,1.3-.34,2.59-.51,3.88.17-.06.32-.11.49-.17ZM211.44,612.25c.77-7.7-2.35-29.33-6.55-42.59-2.1.82-4.21,1.64-6.97,2.72.12.63.24,1.24.36,1.87,2.22-.87,4.04-1.58,5.84-2.28,3.83,12.12,6.77,31.21,6.65,40.28h.67ZM286.6,594.08c.3-.08.61-.16.93-.24-.47-5.91-.92-11.53-1.48-18.53-.37-.76-.75-1.52-1.14-2.32.67,8.4,1.17,14.67,1.68,21.09ZM295,573.92c.11-1.09.23-2.14.33-3.17-4.11-8.07-7.21-14.17-10.5-20.63-3.3.89-6,1.62-10.33,2.79.1.68.19,1.34.28,2.02,3.73-1.01,6.26-1.69,9.28-2.51,3.4,6.69,6.6,12.98,10.93,21.49ZM601.04,1544.12c-21.75,2.59-43.49,5.18-65.24,7.77-23.33,2.77-47.73,7.92-71.21,7.92-28.3-38.93-65.61-60.84-115.74-60.45-30.9-48.16-54.47-102.82-78.26-154.77-24.94-54.45-47.79-109.84-69.01-165.84-42.79-112.92-78.76-228.47-108.01-345.62-16.37-65.57-34.08-132.66-43.11-199.71-.34.19-.67.37-1.02.56,8.95,67.63,26.84,135.32,43.35,201.45,29.25,117.15,65.22,232.7,108.01,345.62,21.22,56,44.07,111.39,69.01,165.84,23.79,51.95,47.36,106.62,78.26,154.77,50.13-.39,87.44,21.52,115.74,60.45,23.48,0,47.88-5.14,71.21-7.92,21.75-2.58,43.49-5.18,65.24-7.77,43.08-5.13,87.24-8.02,129.79-16.49-.24-.68-.48-1.36-.72-2.04-42.09,8.24-85.72,11.15-128.3,16.22ZM474.36,536.38c-56.7,2-85.48-30.38-101-80.2-85.9,21.69-171.39,43.28-257.32,64.99.02.7.03,1.4.04,2.1,85.66-21.63,170.88-43.16,256.51-64.78,15.52,49.82,44.3,82.2,101,80.2,60.59,312.51,152.14,614.91,292.09,902.3.54-.17,1.08-.35,1.63-.52-140.45-287.92-232.24-590.93-292.96-904.09ZM729.34,1474.35c-1.47,2.73-2.57,5.47-3.41,8.21.73-1.97,1.58-3.94,2.64-5.9,9.81-18.26,27.58-24.34,46.2-29.9-.3-.6-.58-1.21-.88-1.81-18.01,5.43-35.03,11.68-44.55,29.4ZM501.3,1493.03c-3.36,1.14-7.98,1.49-11.23.5-6.42-1.95-11.73-8.62-10.54-13.06,0-.02,0-.03.01-.05-.4.69-.69,1.45-.78,2.36-1.18,4.44,4.12,11.11,10.54,13.06,3.24.98,7.86.64,11.23-.5l2.47,3.63c.57-.29,1.15-.59,1.69-.95l-3.4-4.98ZM157.08,648.41c73.72-18.44,148.81-32.39,221.91-53.12-.13-.67-.25-1.32-.38-1.99-72.74,20.55-147.43,34.46-220.76,52.8-6.24-27.64-10.98-54.62-15.54-82.41-.37.09-.74.18-1.11.27,4.67,28.51,9.48,56.12,15.88,84.44ZM308.77,544.76c-4.16,1-7.09,1.7-10.43,2.5-.08.73-.15,1.46-.23,2.18,3.12-.75,5.96-1.43,9.89-2.37,3.22,13.64,6.24,26.42,9.22,39.02.33-.26.69-.55,1.11-.89-3.09-13.06-6.21-26.29-9.56-40.44ZM301.86,589.5c.51-7.38.99-14.24,1.47-21.06-.21.04-.41.07-.62.11-.48,6.85-.96,13.73-1.47,21.06.21-.04.4-.07.62-.11ZM56.32,636.6c.08.59.19,1.18.28,1.77,28.53-14.23,44.39-34.81,52.24-59.55-8.2,24.01-24.22,43.97-52.52,57.77ZM596.92,1474.55c-.12-1.23-.25-2.38-.39-3.5-5.38-5.54-10.33-9.88-15.28-15.11-2.88.57-6.07,1.18-9.98,1.94.31.67.6,1.32.91,1.98,3.15-.61,5.85-1.13,8.3-1.62,5.31,5.61,10.61,10.17,16.44,16.31ZM575.63,1484.2c-4.69,0-7.97.83-12.26.83-.52-1.15-1.33-2.58-2.08-4.01-.57.14-1.13.27-1.69.44.89,1.97,2.26,4.22,3,5.87,4.29,0,7.58-.83,12.26-.83.48.62,1.65,2.15,2.78,3.63.71-.17,1.41-.34,2.13-.53-1.38-1.79-3.47-4.53-4.15-5.41ZM589.9,1479.34c-1.19-1.13-2.1-1.91-2.41-1.97.98,3.39,3.33,7.66,4.77,11.42.53-.1,1.03-.21,1.46-.33-.82-2.79-2.46-6.06-3.81-9.12ZM566.98,1471.46s-4.51.66-9.79.96c-.37-.8-1.28-2.48-2.07-4-.55.17-1.1.33-1.65.54.79,1.72,2.42,4.63,2.94,5.77,5.29-.3,9.79-.96,9.79-.96,0,0,1.19,1.6,2.52,3.32.69-.21,1.37-.42,2.04-.69-1.75-2.16-3.8-4.94-3.8-4.94ZM535.79,1461.8c-2.68.85-3.99,1.27-5.85,1.86.23.63.45,1.24.67,1.85,1.24-.39,2.46-.78,4.41-1.4,4.97,9.49,9.93,18.96,15.42,29.47l1.89-.17c-5.96-11.38-11.23-21.46-16.54-31.6ZM533.96,1479.13c-.4-1.1-.78-2.15-1.16-3.18-4.22-2.42-11.98-8.95-16.64-10.97l-7.71,1.43c.35.66.69,1.31,1.04,1.97l5.9-1.1c5.51,2.39,15.36,11.11,18.56,11.85ZM563.21,1464.05c.63-.2,1.25-.38,1.9-.63-1.4-2.08-2.33-3.45-3.34-4.96-6.39,1.01-12.29,1.94-18.92,2.98.23.7.51,1.38.76,2.07,6.01-.95,11.5-1.81,17.39-2.74.71,1.05,1.39,2.06,2.21,3.28ZM502.32,1466.9c-2.5.28-4.5.5-8.07.89.37.72.73,1.4,1.1,2.1,2.47-.27,4.18-.46,6.21-.68,4.98,9.41,9.86,18.63,15.15,28.61.6-.07,1.2-.15,1.87-.23-5.73-10.81-10.92-20.62-16.25-30.69ZM604.9,1453.44c-3.06.35-5.79.63-9.52,1.05.07.75.15,1.48.23,2.2,3.22-.35,5.75-.62,8.52-.94,5.96,9.62,11.73,19.05,17.49,28.37.42-.05.8-.14,1.19-.21-.07-.58-.14-1.17-.21-1.75-5.83-9.44-11.66-18.98-17.7-28.72ZM433.11,616.16c3.06,14.95,6.03,29.93,9.53,44.78,10.08,42.79,20.15,85.59,30.67,128.27,23.33,94.61,51.39,187.84,82.75,280.07,31.14,91.58,66,181.73,105.54,270.03,8.31,18.56,16.84,37.03,25.41,55.47,1.39,3,2.2,6.93,8.4,7.75-.29-.95-.54-1.82-.77-2.64-4.77-1.24-5.59-4.69-6.86-7.42-8.57-18.45-17.1-36.91-25.41-55.47-39.54-88.3-74.4-178.45-105.54-270.03-31.36-92.23-59.42-185.46-82.75-280.07-10.52-42.68-20.59-85.48-30.67-128.27-3.5-14.85-6.47-29.83-9.53-44.78-.41-1.99-.39-4.07-.41-6.14-.27.1-.55.2-.82.3.13,2.72-.08,5.51.46,8.15ZM330.42,554.22l-.48,11.78,5.05-.72-.86-2.08-3.42.49.33-7.98-.61-1.49ZM333.89,538.46c-3.91.89-6.96,1.59-10.59,2.42-.04.73-.1,1.44-.15,2.17,3.35-.77,6.29-1.44,9.97-2.28,5.93,12.58,11.68,24.77,17.76,37.67.44-.23.91-.48,1.49-.78-6.35-13.47-12.31-26.11-18.48-39.19ZM108.54,691.23c5.81,26.63,11.57,53.26,17.65,79.83,17.43,76.18,37.97,151.51,61.01,226.19,30.45,98.72,65.09,195.92,106.36,290.64,21.76,49.94,45.65,98.95,68.69,148.32,1.72,3.68,3,8.04,7.83,10.24.37-.86.52-1.65.6-2.41-4.68-2.23-5.97-6.52-7.66-10.15-23.04-49.37-46.93-98.38-68.69-148.32-41.26-94.71-75.91-191.91-106.36-290.64-23.04-74.68-43.58-150.01-61.01-226.19-6.08-26.56-11.84-53.2-17.65-79.83-.35-1.61-.35-3.31-.36-5.15-.26-.05-.53-.09-.82-.12.13,2.82-.09,5.28.41,7.57ZM328.22,584.01c.77-2.98,1.48-5.72,2.2-8.47-.06,0-.11.01-.18.02-.74,2.83-1.45,5.58-2.21,8.51.06-.02.13-.04.19-.06ZM517.57,1062.39c-22.14,5.87-44.4,7.63-66.02,14.4,1.32.32,2.64.64,3.96.96,20.6-5.77,41.72-7.67,62.72-13.41-.23-.66-.44-1.29-.66-1.95ZM628.98,1449.08c-3.36,1.09-6.24,2.03-8.89,2.88.08.67.15,1.32.23,1.98,2.37-.77,4.94-1.6,7.88-2.56,8.78,9.8,17.2,19.21,25.83,28.86.71-.26,1.4-.55,1.99-.95-9.06-10.13-17.86-19.95-27.05-30.22ZM177.45,813.93c6.32,1.23,11.58,2.25,17.31,3.37,1.62,6.79,3.15,13.22,4.65,19.56.38-.29.73-.55,1.12-.84-1.62-6.81-3.26-13.71-5-21.02-5.73-1.12-10.99-2.14-17.31-3.37-1.02-4.2-2.1-8.61-3.48-14.29-.46-.07-.92-.13-1.38-.19,1.69,6.92,2.92,12,4.09,16.79ZM629.67,1470.82l5.5-.9-1.53-1.93-3.2.52-.63-5.34-1.22-1.54,1.08,9.19Z"/></g></svg>